<svg width="96" height="28" viewBox="0 0 96 28" fill="none" xmlns="http://www.w3.org/2000/svg">
<path d="M23.4167 17.7261C23.4998 17.1464 23.5419 16.5614 23.5429 15.9757C23.5429 9.32575 18.2725 3.95029 11.7715 3.95029C5.27037 3.95029 0 9.32575 0 15.9757C0 22.6257 5.27037 27.9988 11.7715 27.9988C14.1951 27.9876 16.5563 27.226 18.5333 25.8177C20.5103 24.4095 22.007 22.4231 22.8192 20.1293H18.1892C17.5204 21.242 16.5779 22.1632 15.4523 22.8043C14.3267 23.4454 13.0559 23.785 11.7619 23.7902C8.16503 23.7902 5.14659 21.1958 4.38246 17.7261H23.4167ZM11.7715 8.16123C13.4161 8.17595 15.0118 8.72497 16.3201 9.72622C17.6283 10.7275 18.5788 12.1271 19.0295 13.716H4.5229C4.9727 12.1283 5.9216 10.7292 7.22798 9.72762C8.53436 8.72607 10.1281 8.17576 11.7715 8.15884V8.16123Z" fill="#344792"/>
<path d="M68.0816 8.36926V4.15833H61.0735V0H60.076L52.6299 7.36495V8.36926H56.8933V19.938C56.8933 21.877 57.659 23.7368 59.0224 25.1094C60.3857 26.4821 62.2354 27.2555 64.1657 27.2599H68.0816V23.0442H64.1657C63.3449 23.0442 62.5578 22.7167 61.9775 22.1337C61.3971 21.5507 61.0711 20.76 61.0711 19.9356V8.36926H68.0816Z" fill="#344792"/>
<path d="M46.1051 18.9815C45.4131 20.6495 44.1672 22.0251 42.5793 22.8744C40.9914 23.7236 39.1597 23.994 37.3957 23.6396C35.6317 23.2851 34.0445 22.3277 32.904 20.9303C31.7636 19.5328 31.1403 17.7816 31.1403 15.9745C31.1403 14.1675 31.7636 12.4163 32.904 11.0188C34.0445 9.62134 35.6317 8.66393 37.3957 8.30949C39.1597 7.95505 40.9914 8.22545 42.5793 9.0747C44.1672 9.92395 45.4131 11.2996 46.1051 12.9676H50.5185C49.7899 10.1337 48.0575 7.664 45.6459 6.02142C43.2343 4.37883 40.3091 3.67611 37.4186 4.04498C34.5281 4.41385 31.8708 5.82899 29.9447 8.02514C28.0186 10.2213 26.956 13.0477 26.956 15.9745C26.956 18.9014 28.0186 21.7278 29.9447 23.9239C31.8708 26.1201 34.5281 27.5352 37.4186 27.9041C40.3091 28.273 43.2343 27.5702 45.6459 25.9277C48.0575 24.2851 49.7899 21.8154 50.5185 18.9815H46.1051Z" fill="#344792"/>
<path d="M82.8406 3.95028C76.0086 3.95028 70.4621 9.33292 70.4621 15.9757C70.4621 22.6185 76.0014 27.9988 82.8406 27.9988C89.5368 27.9988 94.981 22.8242 95.2 16.3631V3.92876L82.8406 3.95028ZM82.8406 23.7974C78.3177 23.7974 74.6589 20.2919 74.6589 15.9829C74.6589 11.6739 78.3391 8.15883 82.8406 8.15883C87.342 8.15883 91.0294 11.6644 91.0294 15.9757C91.0294 20.2871 87.3635 23.7902 82.8406 23.7902V23.7974Z" fill="#344792"/>
</svg>
